<svg id="SBS_Logo" data-name="SBS Logo" xmlns="http://www.w3.org/2000/svg" width="274.84" height="108.077" viewBox="0 0 274.84 108.077">
  <path id="Path_458" data-name="Path 458" d="M7689.154,144.267l137.124-47.72L7958.542,140l-132.264,54.8Z" transform="translate(-7687 -91.297)" fill="#5ed7ea" stroke="#707070" stroke-width="1"/>
  <g id="Group_227" data-name="Group 227" transform="translate(0 0)">
    <path id="Path_450" data-name="Path 450" d="M91.454,36.367a1.622,1.622,0,0,0,.444-.074A9.523,9.523,0,0,0,96.966,33.6c.154-.164.4-.393.236-.7s-.614-.281-.838-.2a12.435,12.435,0,0,0-4.552,3.251A2.454,2.454,0,0,0,91.454,36.367Z" transform="translate(41.579 14.841)" fill="#2438a0"/>
    <path id="Path_451" data-name="Path 451" d="M76.229,46.248a76.021,76.021,0,0,0,5.565-6.211c1.043-1.45,2.362-2.7,3.552-4.047A32.228,32.228,0,0,0,88,32.486,56.711,56.711,0,0,1,91.747,27.8c1.535-1.839,3.13-3.625,4.653-5.472,1.188-1.442,4.191-5.308,4.191-5.308s-1.389.818-1.5.889c-.817.55-1.13.81-1.964,1.332-2.06,1.293-4.115,2.6-6.217,3.824-1.9,1.108-3.9,2.055-5.782,3.19-1.82,1.1-10.9,6.684-13.578,8.249-2.346,1.372-4.671,2.78-7.014,4.159-1.574.927-3.135,1.879-4.751,2.726-1.731.9-2.3,1.126-4.061,1.964-.317.151-8.547,5.03-12.014,6.547-.361.159-.435.307-.122.7a6.681,6.681,0,0,0,2.9,1.686c2.428.956,3.014,1.488,5.6,1.872a45.459,45.459,0,0,0,5.49.557,19.525,19.525,0,0,0,3.29-.343,16.941,16.941,0,0,0,5.235-1.462,24.97,24.97,0,0,0,4.665-2.346C72.79,49.1,74.493,48.18,76.229,46.248Z" transform="translate(19.729 7.737)" fill="#2438a0"/>
    <path id="Path_452" data-name="Path 452" d="M124.573,37.957a5.856,5.856,0,0,0-2.278,0c-.527.109-.895.471-.882.874a.983.983,0,0,0,.89.876,2.382,2.382,0,0,0,.367.031c.26,0,.518,0,.778,0,.355,0,.713.01,1.063-.025a.967.967,0,0,0,.975-.873C125.489,38.384,125.173,38.069,124.573,37.957Z" transform="translate(55.199 17.205)" fill="#2438a0"/>
    <path id="Path_453" data-name="Path 453" d="M98.945,57.55a.553.553,0,0,0-.108-.017c-.492-.012-.985-.031-1.476-.031a.846.846,0,0,0-.368.1.558.558,0,0,0-.351.512.524.524,0,0,0,.339.516,1.519,1.519,0,0,0,.445.113c.191.017.384,0,.576,0,.326-.031.659-.009.979-.068a.569.569,0,0,0,.5-.561A.6.6,0,0,0,98.945,57.55Z" transform="translate(43.937 26.143)" fill="#2438a0"/>
    <path id="Path_454" data-name="Path 454" d="M122.044,36.8a11.149,11.149,0,0,0,1.25.157,5.22,5.22,0,0,0,.74-.055,4.717,4.717,0,0,0,1.027-.233.7.7,0,0,0,.439-.761.74.74,0,0,0-.516-.714,2.83,2.83,0,0,0-.71-.16c-.518-.025-1.037-.025-1.555,0a2.083,2.083,0,0,0-.752.153.879.879,0,0,0-.6.8A.8.8,0,0,0,122.044,36.8Z" transform="translate(55.177 15.92)" fill="#2438a0"/>
    <path id="Path_455" data-name="Path 455" d="M141.683,36.817a.981.981,0,1,0,.908.995A.9.9,0,0,0,141.683,36.817Z" transform="translate(64.006 16.739)" fill="#2438a0"/>
    <path id="Path_456" data-name="Path 456" d="M273.09,51.126h0a17.124,17.124,0,0,0-1.74-.742c-8.655-3.09-42.451-15.581-50.691-18.765C194.733,21.6,145.609,2.495,141.824,1.02a11.421,11.421,0,0,0-8.782-.268c-6.83,2.479-13.986,4.956-20.908,7.35-5.263,1.821-10.514,3.638-15.656,5.467q-4.785,1.7-9.585,3.383c-7.819,2.752-15.9,5.6-23.754,8.531-6.851,2.559-13.019,5.176-18.986,7.7-4.905,2.082-9.976,4.233-15.488,6.381-6.009,2.342-19.947,8.188-26.633,11.17A3.38,3.38,0,0,0,0,53.966a3.427,3.427,0,0,0,2.21,3.117c5.641,2.16,15.438,5.676,24.082,8.777,5.424,1.946,10.526,3.778,14.162,5.113,9.368,3.446,18.81,7.058,27.941,10.552q6.223,2.381,12.45,4.752,2.621.993,5.254,1.972c3.587,1.341,7.3,2.727,10.878,4.159l1.283.513c11.323,4.524,23.031,9.2,34.116,13.869a13.267,13.267,0,0,0,5.218,1.286,13.87,13.87,0,0,0,5.243-1.252c11.886-4.8,24.8-9.828,35.975-14.164,16.621-6.45,34.489-13.368,52.547-20.252,7.638-2.912,15.49-5.776,23.082-8.546l6.171-2.253c2-.729,4.028-1.522,6.051-2.313,1.648-.643,3.29-1.284,4.911-1.89a14.861,14.861,0,0,0,1.575-.707,3.118,3.118,0,0,0-.06-5.574ZM139.273,45.152a2.444,2.444,0,0,1,1.888,1.124c.754,1.415.214,2.486-.98,3.606a9.807,9.807,0,0,1-2.752,2.031c-.643.279-1.319.682-2.3,1.031s-2.16.708-3.424,1.175c-1.887.7-1.533,1.949-1.427,2.375a1.514,1.514,0,0,0,1.524,1.149,10.986,10.986,0,0,0,4.94-1.494c1.539-.778,3.175-1.375,4.677-2.215a45.836,45.836,0,0,0,3.862-2.765c.97-.706,1.514-1.424,2.45-2.135.492-.375,2.029-2.02,2.329-2.343.835-.9,1.68-1.785,2.521-2.675,1.1-1.171,2.229-2.323,3.306-3.517.851-.943,1.626-1.954,2.47-2.9,1.807-2.284,4.1-4.457,5.7-6.249a19.1,19.1,0,0,1,1.6-1.858,1.517,1.517,0,0,1,1.295-.208,1.1,1.1,0,0,1,.221,1.763c-1.919,1.929-3.9,4.48-5.43,6.261a54.028,54.028,0,0,1-3.973,4.483,32.8,32.8,0,0,0-3.679,4.189c-.957,1.257-1.461,1.915-2.733,3.878s-1.575,2.647-2.357,3.976c-.035.06-.055.128-.086.191a2.52,2.52,0,0,0-.064,2.682c1.183,1.738,4.56-.58,5.436-1.469,1.881-1.911,3.9-3.69,5.7-5.673,2.373-2.614,4.856-5.413,7.161-8.088,1.132-1.314,2.089-2.5,3.2-3.833.412-.492,3.88-4.627,4.272-5.049.9-.964,1.248-1.379,2.16-2.327,2.035-2.114,3.872-.663,2.233,1.391-.49.605-.737.682-1.264,1.258a58.187,58.187,0,0,0-5.3,6.009c-1.968,2.732-6.339,6.992-9.067,10.241a14.6,14.6,0,0,0-2.538,3.96c-.444.951-.239,3.613.513,4.325.384.362,1.506.18,2.262-.287,1.011-.624,1.956-1.216,2.9-1.9a1.187,1.187,0,0,1,1.49-.044c.26.271.063.8-.061,1.008a4.679,4.679,0,0,1-1.156,1.177,38.77,38.77,0,0,1-3.561,2.317,3.437,3.437,0,0,1-4.09-.612c-.876-.9-.857-3.661-.922-3.881a5.856,5.856,0,0,0-.506.323,27.73,27.73,0,0,1-3.821,2.972c-1.088.589-2.9,1.756-4.46,1.588-1.3-.14-3.1-1.26-3.391-2.386a8.7,8.7,0,0,1,.348-4.534c-.275.2-2.578,1.892-2.784,2.02-1.348.826-1.773.988-3.142,1.779a50.678,50.678,0,0,1-6.864,2.812c-3.478,1.17-4.605-.722-5.275-2.178a3.372,3.372,0,0,1-.241-.879s-.522.316-1.069.684a25.462,25.462,0,0,1-2.661,1.442c-1.888.864-3.73,1.855-5.926.883a2.076,2.076,0,0,1-1.347-2.079,10.175,10.175,0,0,1,1.536-4.873c.646-1.042,1.9-2.972,2.466-4.057a.828.828,0,0,0-.1-.96c-.288-.276-1.033-.189-1.273-.132a17.733,17.733,0,0,0-4.509,1.807A15.122,15.122,0,0,0,110.81,53c-.537.55-1.731,1.885-2.266,2.437-1.132,1.165-1.833,2-2.928,3.2-.07.077-.522.694-.592.772-.625.72-1.148.9-1.594.57a1.633,1.633,0,0,1-.255-2.106c.529-.7,1.124-1.353,1.708-2.01,1.286-1.452,2.982-3.42,4.3-4.845,1.172-1.273,2.1-2.1,3.237-3.4,2.409-2.765,5.075-5.961,7.484-8.728,1.45-1.666,3.005-3.238,4.483-4.88,1.252-1.394,2.469-2.822,3.685-4.249a.991.991,0,0,1,1.4-.316A1.127,1.127,0,0,1,130,30.881a2.523,2.523,0,0,1-.384.623c-1.568,1.89-3.122,3.792-4.729,5.65-1.177,1.359-2.455,2.629-3.638,3.983-1.133,1.3-2.54,3.013-3.635,4.344l-.017.026.039-.052c.7-.1,1.388-.244,2.087-.291a8.906,8.906,0,0,1,1.782.067,2.551,2.551,0,0,1,1.945,1.2,2.762,2.762,0,0,1-.042,3.255c-.764,1.231-2.237,3.289-2.953,4.544a6.844,6.844,0,0,0-.719,2.071c-.1.525.342.825.841.908a2.236,2.236,0,0,0,.951.013,14.545,14.545,0,0,0,4.16-1.808,13.346,13.346,0,0,0,2.429-2.163c.333-.365.71-.743,1.018-1.155a18.449,18.449,0,0,1,1.418-1.906c1.127-1.2,2.313-2.354,3.549-3.44A7.137,7.137,0,0,1,139.273,45.152ZM69.757,64.094a17.474,17.474,0,0,1-3.784-1.314,13.478,13.478,0,0,1-4.463-3.033,1.412,1.412,0,0,0-1.687-.352c-2.006.678-4.008,1.4-6.059,1.9-1.744.433-3.554.608-5.337.879A19.277,19.277,0,0,1,42,62.193a25.858,25.858,0,0,1-3.974-1.33,6.356,6.356,0,0,1-2.375-1.475,7.069,7.069,0,0,1-2.317-4.829,6.344,6.344,0,0,1,2-5.26,8.554,8.554,0,0,1,4.8-2.477,5.179,5.179,0,0,1,3.148.372,4.038,4.038,0,0,1,1.42,1.529c.441.688.32,1.366-.449,1.556-.866.214-1.314-.547-1.935-1.027a2.494,2.494,0,0,0-2.327-.2c-.518.215-1.082.324-1.586.563-.273.129-.529.349-.743.458-2.019,1.311-1.935,2.892-1.667,4.509s.1.321.118.419a5.291,5.291,0,0,0,1.831,3.248,6.341,6.341,0,0,0,1.692.9c3.015.567,6.057,1.21,9.138.66A55.2,55.2,0,0,0,54.2,58.411c1.42-.406,2.812-.9,4.22-1.348.41-.131.7-.281.486-.807a10.016,10.016,0,0,1-.4-1.385c-.273-1.126-.745-2.307-.935-3.446-.227-1.35-.243-1.712-.474-3.062a13.444,13.444,0,0,1,.345-4.7,16.49,16.49,0,0,1,2.441-5.437,14.022,14.022,0,0,1,2.7-2.485,18.573,18.573,0,0,1,2.816-2.007c1.455-.784,2.729-1.868,4.576-1.991,1.3-.086,2.6-.665,3.961-.455a18.635,18.635,0,0,1,6.224,1.946,1.81,1.81,0,0,1,.967,1.62.752.752,0,0,1-.6.679,1.064,1.064,0,0,1-.873-.132A8.4,8.4,0,0,0,75.6,33.662c-1.769-.263-3.558-.579-5.3.288-.973.483-2.064.729-3.034,1.215a11.915,11.915,0,0,0-5.544,5.371,29.829,29.829,0,0,0-1.53,3.6,13.084,13.084,0,0,0-.543,5.609,14.689,14.689,0,0,0,1.426,5.365c.223.444.33.559.915.393a31.046,31.046,0,0,0,5.753-2.707c.621-.335,1.625-1.052,2.6-1.49s3.51-1.78,5.43-2.879c2.175-1.242,4.4-2.391,6.623-3.555,1.746-.915,3.619-2.083,5.362-3,.623-.329,1.654-1.055,2.265-1.414,1.337-.787,2.31-1.235,3.629-2.051,1.159-.719,1.364-.707,2.5-1.465.7-.467,1.414-.9,2.114-1.364,1.6-1.062,3.165-2.2,4.813-3.184,2.6-1.564,5.273-3.018,7.9-4.547,1.639-.957,3.25-1.964,4.87-2.953,1.25-.762,2.508-1.511,3.734-2.309.813-.528,1.57-1.14,2.361-1.7,1.651-1.171,3.286-2.365,4.972-3.485.934-.621,4.949-3.36,5.8-3.83a12.57,12.57,0,0,1,2.036-.978c.471-.141.973.9-.049,1.667-1.235.863-5.225,4.29-8.777,7.611a64.6,64.6,0,0,0-7.41,8.3c-1.03,1.286-1.971,2.646-2.944,3.977q-2.237,3.061-4.463,6.131c-1.215,1.671-2.413,3.353-3.635,5.02-1.039,1.414-2.08,2.828-3.157,4.214-1.22,1.571-2.409,2.735-3.695,4.252a41.577,41.577,0,0,1-3,2.9,32.717,32.717,0,0,1-3.877,2.988A31.128,31.128,0,0,1,88.3,62.24,33.582,33.582,0,0,1,75.91,64.668,37.141,37.141,0,0,1,69.757,64.094ZM126.92,87.814a2.273,2.273,0,0,1-1.364,1.274,5.578,5.578,0,0,1-3.37.1c-.415-.1-.832-.2-1.25-.294-.307-.068-.393-.137-.415-.451a6.111,6.111,0,0,1,0-.848c.026-.38.205-.477.556-.316.431.2.85.422,1.283.618a3.333,3.333,0,0,0,1.715.255,1.252,1.252,0,0,0,.723-.305.847.847,0,0,0-.031-1.3,1.725,1.725,0,0,0-.848-.358c-.513-.084-1.028-.161-1.536-.279a3,3,0,0,1-1.036-.479,1.788,1.788,0,0,1-.4-2.4,2.541,2.541,0,0,1,1.45-1.106,4.566,4.566,0,0,1,1.376-.239,5.013,5.013,0,0,1,2.036.342,2.433,2.433,0,0,0,.559.122c.345.065.433.166.439.512,0,.192.006.385,0,.576-.016.476-.241.623-.684.441-.236-.1-.461-.223-.687-.342a3.96,3.96,0,0,0-1.356-.416,1.579,1.579,0,0,0-1,.212.864.864,0,0,0-.2,1.287,1.2,1.2,0,0,0,.672.4c.391.084.793.134,1.184.223a6.487,6.487,0,0,1,1.158.319A1.751,1.751,0,0,1,126.92,87.814Zm9.252-5.26a13.3,13.3,0,0,0-.06,2.815,7.24,7.24,0,0,1-.125,1.767,2.84,2.84,0,0,1-1.887,2.172,3.583,3.583,0,0,1-2.313.106A2.88,2.88,0,0,1,129.57,86.8c-.054-.7-.063-1.4-.092-2.1-.047-.765-.019-1.532-.067-2.3-.013-.23.068-.383.288-.387a12,12,0,0,1,1.252.054c.159.013.217.153.208.307-.028.455-.058.911-.083,1.364a16.581,16.581,0,0,0,.039,2.981,1.736,1.736,0,0,0,.732,1.3,1.433,1.433,0,0,0,1.6.074,2.023,2.023,0,0,0,1.1-1.808q.013-1.412,0-2.823c0-.319-.054-.634-.089-.953-.035-.349.048-.458.393-.465.3,0,.6-.006.9,0C136.141,82.045,136.237,82.16,136.172,82.554Zm9.349,2.082a1.97,1.97,0,0,1-.892,1.353c-.068.047-.138.089-.208.132a.994.994,0,0,0-.409,1.43c.188.377.4.74.6,1.11.033.064.077.124.106.191.086.2.033.319-.179.365a2.04,2.04,0,0,1-.461.042c-.2,0-.4-.028-.6-.038a.5.5,0,0,1-.56-.417,7.25,7.25,0,0,0-.988-1.856.92.92,0,0,0-.788-.416.664.664,0,0,0-.662.439,1.376,1.376,0,0,0-.112.5c0,.428.026.855.06,1.283.017.257-.063.42-.324.439a9.641,9.641,0,0,1-1.123.012c-.208-.009-.272-.141-.257-.4.017-.319.042-.637.045-.956.007-.685,0-1.37,0-2.057,0-.729.009-1.46,0-2.191a9.6,9.6,0,0,0-.076-.982c-.042-.355.028-.464.385-.512a2.139,2.139,0,0,1,.273-.013c1.242,0,2.485-.015,3.727.006a5.792,5.792,0,0,1,1.19.167,1.519,1.519,0,0,1,1.168,1.149A2.709,2.709,0,0,1,145.521,84.635Zm9.134-1.21c-.031.317-.128.353-.445.3a5.429,5.429,0,0,0-.865-.1c-.787-.012-1.572-.009-2.358,0a3.19,3.19,0,0,0-.674.089.813.813,0,0,0-.356.192.477.477,0,0,0,.015.761.713.713,0,0,0,.335.173,6.353,6.353,0,0,0,.924.081c.521,0,1.039-.026,1.559-.033a.749.749,0,0,1,.3.045c.087.035.205.1.231.172a1.592,1.592,0,0,1,0,1.043.5.5,0,0,1-.3.214,1.381,1.381,0,0,1-.432.051c-.575.006-1.151,0-1.725,0a2.739,2.739,0,0,0-.329.013.951.951,0,0,0-.924,1c0,.455.029.911.063,1.364.02.281-.055.432-.335.454a9.947,9.947,0,0,1-1.122.007c-.221-.01-.314-.154-.289-.381.186-1.677.055-3.357.076-5.035a10.434,10.434,0,0,0-.122-1.306c-.029-.26.067-.4.327-.433a2.319,2.319,0,0,1,.3-.012c.713,0,1.426,0,2.137,0h0c.676,0,1.351.006,2.028,0,.391,0,.783-.036,1.174-.047a1.6,1.6,0,0,1,.353.026.468.468,0,0,1,.447.527A6.533,6.533,0,0,1,154.654,83.425Zm17.873-14.161a1.083,1.083,0,0,1-.62.195c-2.052-.067-12.871-.735-16.235-.919-.323-.019-20.5.159-22.665.3-2.032.129-4.05.422-6.064.681-1.91.244-3.817.489-5.709.81-1.076.183-2.146.423-3.2.708A21.815,21.815,0,0,0,105.6,78.124c-.333.529-.6,1.007-1.308.467a15.313,15.313,0,0,0-1.885-1.194,17.118,17.118,0,0,0-2.242-1.074c-1.482-.55-3-1.033-4.525-1.485a14.478,14.478,0,0,0-2.527-.58c-1.536-.164-3.088-.2-4.639-.281-.16-.009-7.7.518-9.118.778a1.939,1.939,0,0,1-.941-.022c-.275-.095-.566-.09-.689-.54-.112-.4.353-.886.685-1.042,19.478-5.9,40.641-7.762,60.919-7.455q5.23.035,10.462.32c2.407.128,18.333,1.648,19.937,1.958.874.169,1.746.351,2.613.554.148.033.368.157.384.265A.577.577,0,0,1,172.527,69.264Zm10.7-10.572a4.752,4.752,0,0,1-2.394.625c-.754.02-1.506,0-2.259.009-1.327.019-2.652.052-3.978.079a4.262,4.262,0,0,1-.452-.012c-.377-.044-.556-.249-.468-.615a11.71,11.71,0,0,0,.2-2.858c-.023-1.874-.047-3.749-.089-5.621a6.211,6.211,0,0,0-.161-1.053c-.09-.444.048-.655.508-.672.521-.017,1.04-.007,1.561-.007h1.683c.89,0,1.783-.042,2.669.012a12.817,12.817,0,0,1,2.346.326,2.273,2.273,0,0,1,1.642,3.059,4.715,4.715,0,0,1-.336.746,1.733,1.733,0,0,0,.068,2,4.654,4.654,0,0,1,.538,1.055A2.339,2.339,0,0,1,183.229,58.692Zm14.523-.065a.6.6,0,0,1-.588.663,3.05,3.05,0,0,1-.49.031c-.793,0-1.587-.006-2.381,0-1.955.022-3.911.058-5.865.08-.841.009-.9-.093-.762-.9a11.464,11.464,0,0,0,.145-1.671c.02-1.066.026-2.135,0-3.2-.031-1.229-.1-2.458-.157-3.686a3.063,3.063,0,0,0-.084-.525c-.144-.607-.023-.768.615-.772.916-.006,1.833,0,2.751,0h1.068c1.19,0,2.38,0,3.571,0,.231,0,.463-.038.694-.045a4.769,4.769,0,0,1,.777.01c.438.058.621.218.662.652a7.928,7.928,0,0,1,.015,1.391c-.033.447-.231.541-.669.464a8.7,8.7,0,0,0-1.3-.159q-1.848-.033-3.693,0a3.2,3.2,0,0,0-1,.195.842.842,0,0,0,.108,1.6,5.629,5.629,0,0,0,1.215.159c.711.006,1.421-.052,2.131-.064a4.48,4.48,0,0,1,.774.073.583.583,0,0,1,.529.547,5.631,5.631,0,0,1,.019,1.062.674.674,0,0,1-.679.6c-.762.025-1.526.022-2.29.028-.4,0-.794-.019-1.19,0a1.839,1.839,0,0,0-.592.15.81.81,0,0,0-.547.791.851.851,0,0,0,.607.8,2.765,2.765,0,0,0,.8.127q2.217-.022,4.429-.084a6.036,6.036,0,0,0,.727-.125c.445-.067.627.07.641.509S197.767,58.19,197.752,58.626Zm12.783.727a4.579,4.579,0,0,1-.617.048l-1.018-.109a.8.8,0,0,1-.71-.541,1.341,1.341,0,0,0-1.266-.943c-.832-.033-1.667-.076-2.5-.047a1.24,1.24,0,0,0-1.2.9.948.948,0,0,1-1.021.716c-.436-.019-.874-.015-1.308-.067-.525-.064-.6-.243-.394-.719.522-1.188,1.053-2.375,1.545-3.577.63-1.545,1.234-3.1,1.831-4.658a5.449,5.449,0,0,0,.252-.989c.08-.458.249-.7.7-.71a19.209,19.209,0,0,1,2,.077.528.528,0,0,1,.474.544,6.835,6.835,0,0,0,.6,2.038c.441,1.149.871,2.3,1.334,3.443.534,1.316,1.1,2.621,1.652,3.929C211.056,59.076,210.955,59.294,210.536,59.354Zm12.716-8.082a.53.53,0,0,1-.751.5,1.687,1.687,0,0,1-.474-.231c-.273-.179-.529-.387-.807-.563a3.822,3.822,0,0,0-3.76-.337,3.727,3.727,0,1,0,3.618,6.5,11.306,11.306,0,0,0,1.17-.831c.193-.143.388-.281.636-.161a.6.6,0,0,1,.285.595c.007.22,0,.438,0,.656l.033,0c-.038.381-.057.764-.115,1.142s-.188.489-.545.484a4.619,4.619,0,0,0-1.744.4,6,6,0,0,1-6.355-1.268,5.179,5.179,0,0,1-1.354-5.295,6.242,6.242,0,0,1,5.109-4.7,5.035,5.035,0,0,1,2.976.362,5.008,5.008,0,0,0,1.615.436c.4.015.547.191.543.577C223.326,50.127,223.306,50.7,223.252,51.272Zm12.8,8.126a12.049,12.049,0,0,1-1.714-.064c-.317-.033-.372-.208-.348-.582a18.077,18.077,0,0,0,.074-1.839,1.467,1.467,0,0,0-1.465-1.6c-.217-.032-.435-.044-.652-.055-.177-.009-.356,0-.535,0l0-.035c-.448.039-.9.064-1.343.125a1.227,1.227,0,0,0-1.076,1.034,4.846,4.846,0,0,0,.042,1.914c.026.175.074.348.093.524.039.34-.093.576-.419.583a17.984,17.984,0,0,1-1.836-.079.345.345,0,0,1-.311-.449,20.3,20.3,0,0,0,.121-3.724c0-1.476-.041-2.953-.081-4.428-.013-.449-.087-.9-.134-1.346-.054-.515.1-.74.612-.751a14.319,14.319,0,0,1,1.635.086c.31.031.413.244.387.609-.044.585-.076,1.171-.109,1.756a2.345,2.345,0,0,0,.007.287,1.51,1.51,0,0,0,1.476,1.61,6.571,6.571,0,0,0,2.282-.089,1.273,1.273,0,0,0,1.2-1.3,13.79,13.79,0,0,0-.055-2.164c-.054-.583.065-.8.655-.8.477,0,.956.038,1.43.084.384.038.525.268.486.657-.041.407-.079.816-.086,1.225-.033,1.817-.081,3.635-.071,5.452,0,.912.115,1.826.192,2.736C236.533,59.165,236.437,59.38,236.047,59.4Z" transform="translate(0)" fill="#2438a0"/>
  </g>
</svg>
