<svg id="island-with-palm-trees" xmlns="http://www.w3.org/2000/svg" width="86.035" height="99.49" viewBox="0 0 86.035 99.49">
  <path id="Path_444" data-name="Path 444" d="M88.569,95.606c-5.949-7.039-16.61-12.407-29.494-14.6-1.26-7.545-3.51-11.07-3.569-11.169a5.4,5.4,0,0,1,3.516-.318,5.247,5.247,0,0,1,3.455,2.352.418.418,0,0,0,.763-.161,4.217,4.217,0,0,0-.129-1.814,4.728,4.728,0,0,0-3.438-3.392,4.575,4.575,0,0,0-3.107.436,9.192,9.192,0,0,1,3.207-1.759,8.188,8.188,0,0,1,7.116.75.407.407,0,0,0,.61-.458A6.652,6.652,0,0,0,65.4,62.2a7.407,7.407,0,0,0-7.142-1.646,7.256,7.256,0,0,0-2.15,1.142c.046-.059.1-.12.142-.177a8.238,8.238,0,0,1,6.163-3.115.526.526,0,0,0,.318-.922,6.64,6.64,0,0,0-2.93-1.4,7.378,7.378,0,0,0-7.395,2.44,7.24,7.24,0,0,0-1.317,2.59,7.212,7.212,0,0,0-2.581-1.339,7.385,7.385,0,0,0-7.428,2.331,6.577,6.577,0,0,0-1.541,2.767.554.554,0,0,0,.839.6,8.243,8.243,0,0,1,6.76-1.025c.074.022.146.041.22.059a7.185,7.185,0,0,0-2.416.325,7.4,7.4,0,0,0-4.844,5.5,6.644,6.644,0,0,0,.166,3.782.448.448,0,0,0,.839.017,8.189,8.189,0,0,1,5.306-4.657,9.124,9.124,0,0,1,3.628-.445,4.539,4.539,0,0,0-2.777,1.458,4.719,4.719,0,0,0-.815,4.759,4.189,4.189,0,0,0,.961,1.559.412.412,0,0,0,.7-.31,5.2,5.2,0,0,1,1.432-3.918,4.884,4.884,0,0,1,2.849-1.733h0a30.907,30.907,0,0,1,1.8,9.5,79.464,79.464,0,0,0-8.108-.421A75.317,75.317,0,0,0,27.053,82.29c1.208-26.32,17.406-43.756,17.425-43.844v0a12.614,12.614,0,0,1,4.77,6.176A12.2,12.2,0,0,1,49.14,54.4a.965.965,0,0,0,1.288,1.256,9.861,9.861,0,0,0,3.381-2.612,11.012,11.012,0,0,0,2.134-11.06,10.678,10.678,0,0,0-4.866-5.472,21.372,21.372,0,0,1,7.561,3.95c5.271,4.188,7.576,9.377,7.757,14.532a1.045,1.045,0,0,0,1.844.656,15.5,15.5,0,0,0,3.473-8.13c.807-6.019-1.264-12.256-6.05-16a16.76,16.76,0,0,0-5.008-2.7l.53.055c6.436.752,11.027,3.739,13.922,7.787a1.289,1.289,0,0,0,2.317-.613,15.354,15.354,0,0,0-1.092-7.312c-2.42-6.1-7.765-10.648-14.3-11.2a16.859,16.859,0,0,0-6.739.8,16.79,16.79,0,0,0-.746-6.734C52.532,5.359,46.892,1.18,40.409.192a15.374,15.374,0,0,0-7.543.645A1.226,1.226,0,0,0,32.8,3.111c4.67,1.884,8.683,5.694,10.9,11.868.061.168.118.336.172.5a16.742,16.742,0,0,0-3.763-4.266C35.381,7.4,28.837,6.789,23.158,8.932a15.484,15.484,0,0,0-7.279,5.415.948.948,0,0,0,.957,1.5c5.132-1.07,10.8-.035,16.15,4.225a21.28,21.28,0,0,1,5.561,6.47,10.634,10.634,0,0,0-6.431-3.5,11,11,0,0,0-10.292,4.58,9.831,9.831,0,0,0-1.772,3.854.975.975,0,0,0,1.533.979,12.207,12.207,0,0,1,9.479-2.3,12.52,12.52,0,0,1,7.421,3.578c-.314.268-19.856,14.851-32.66,59.5a28.987,28.987,0,0,0-2.174,2.3,2.4,2.4,0,0,0,1.827,3.948H86.72A2.374,2.374,0,0,0,88.569,95.606Z" transform="translate(-3.083 0.006)" fill="#c8ebf0"/>
</svg>
